<svg xmlns="http://www.w3.org/2000/svg" xmlns:xlink="http://www.w3.org/1999/xlink" width="74" zoomAndPan="magnify" viewBox="0 0 55.5 30.000001" height="40" preserveAspectRatio="xMidYMid meet" version="1.0"><defs><g/><clipPath id="c74ae5d642"><path d="M 0.652344 2 L 11 2 L 11 21 L 0.652344 21 Z M 0.652344 2 " clip-rule="nonzero"/></clipPath><clipPath id="757863b947"><path d="M 47 2 L 54.363281 2 L 54.363281 21 L 47 21 Z M 47 2 " clip-rule="nonzero"/></clipPath></defs><g clip-path="url(#c74ae5d642)"><g fill="#dddddd" fill-opacity="1"><g transform="translate(0.658946, 20.577022)"><g><path d="M 0.3125 0 L 2.078125 -18.25 L 8.265625 -18.25 L 10.015625 0 L 6.546875 0 L 6.296875 -2.953125 L 4.078125 -2.953125 L 3.875 0 Z M 4.359375 -5.859375 L 6.015625 -5.859375 L 5.203125 -15.15625 L 5.03125 -15.15625 Z M 4.359375 -5.859375 "/></g></g></g></g><g fill="#dddddd" fill-opacity="1"><g transform="translate(10.964904, 20.577022)"><g><path d="M 2.234375 0 L 0.28125 -18.25 L 3.84375 -18.25 L 4.859375 -6.734375 L 5.890625 -18.25 L 9.28125 -18.25 L 10.265625 -6.734375 L 11.234375 -18.25 L 14.859375 -18.25 L 12.859375 0 L 8.484375 0 L 7.5625 -8.796875 L 6.6875 0 Z M 2.234375 0 "/></g></g></g><g fill="#dddddd" fill-opacity="1"><g transform="translate(26.094478, 20.577022)"><g><path d="M 0.3125 0 L 2.078125 -18.25 L 8.265625 -18.25 L 10.015625 0 L 6.546875 0 L 6.296875 -2.953125 L 4.078125 -2.953125 L 3.875 0 Z M 4.359375 -5.859375 L 6.015625 -5.859375 L 5.203125 -15.15625 L 5.03125 -15.15625 Z M 4.359375 -5.859375 "/></g></g></g><g fill="#dddddd" fill-opacity="1"><g transform="translate(36.400437, 20.577022)"><g><path d="M 0.8125 -18.25 L 5.625 -18.25 C 7.082031 -18.25 8.125 -17.773438 8.75 -16.828125 C 9.375 -15.890625 9.6875 -14.515625 9.6875 -12.703125 C 9.6875 -10.890625 9.410156 -9.519531 8.859375 -8.59375 C 8.304688 -7.675781 7.316406 -7.21875 5.890625 -7.21875 L 4.40625 -7.21875 L 4.40625 0 L 0.8125 0 Z M 4.609375 -10.515625 C 5.046875 -10.515625 5.367188 -10.59375 5.578125 -10.75 C 5.785156 -10.914062 5.921875 -11.148438 5.984375 -11.453125 C 6.046875 -11.765625 6.078125 -12.203125 6.078125 -12.765625 C 6.078125 -13.535156 5.988281 -14.085938 5.8125 -14.421875 C 5.644531 -14.765625 5.304688 -14.9375 4.796875 -14.9375 L 4.40625 -14.9375 L 4.40625 -10.515625 Z M 4.609375 -10.515625 "/></g></g></g><g clip-path="url(#757863b947)"><g fill="#dddddd" fill-opacity="1"><g transform="translate(46.430156, 20.577022)"><g><path d="M 0.8125 0 L 0.8125 -18.25 L 4.46875 -18.25 L 4.46875 -3.109375 L 8.21875 -3.109375 L 8.21875 0 Z M 0.8125 0 "/></g></g></g></g></svg>